<svg width="40" height="40" viewBox="0 0 40 40" fill="none" xmlns="http://www.w3.org/2000/svg">
<g clip-path="url(#clip0_34_3769)">
<path d="M24.6881 40C24.6469 40 24.6057 39.9977 24.5645 39.9931C24.0929 39.9439 23.6992 39.6143 23.5641 39.1599L20.6571 29.1585C20.4968 28.6126 20.7509 28.03 21.2613 27.777C21.4696 27.6729 21.6528 27.555 21.8336 27.4062C22.1335 27.159 22.534 27.0789 22.9071 27.1864C23.6488 27.405 24.3103 27.3947 24.8665 27.1589C25.4617 26.9186 25.9492 26.4425 26.3269 25.7397C26.51 25.4009 26.8465 25.1732 27.2265 25.1297C28.046 25.0381 28.6801 24.7726 29.1104 24.3411C29.2042 24.2483 29.3027 24.1339 29.3827 24.0206C29.6437 23.6577 30.0832 23.4758 30.5318 23.5456C30.9736 23.62 31.333 23.9393 31.4612 24.3685L34.8124 35.6901C34.9475 36.1456 34.7941 36.6365 34.4256 36.9353C34.057 37.2318 33.5397 37.2798 33.1277 37.0521L28.3208 34.4267L25.7181 39.3866C25.5121 39.7676 25.1138 40 24.6881 40V40Z" fill="#27282A"/>
<path d="M24.5795 39.8494L24.5806 39.8495C24.6163 39.8535 24.6522 39.8554 24.6881 39.8554C25.0611 39.8554 25.4099 39.6519 25.5905 39.3186C25.5907 39.3183 25.5908 39.3181 25.591 39.3178L28.1928 34.3596L28.2611 34.2294L28.3901 34.2999L33.197 36.9252L33.1976 36.9256C33.5573 37.1244 34.0111 37.083 34.3347 36.8229C34.6579 36.5608 34.7922 36.1303 34.6738 35.7312L34.6738 35.7311L31.3227 24.4099C31.3227 24.4098 31.3227 24.4097 31.3227 24.4097C31.2102 24.0333 30.8953 23.7537 30.5087 23.6883C30.1135 23.6271 29.7289 23.7872 29.5005 24.1045C29.5003 24.1046 29.5002 24.1048 29.5001 24.105L29.3827 24.0206C29.3027 24.1339 29.2042 24.2483 29.1104 24.3411C28.6801 24.7726 28.046 25.0381 27.2265 25.1297L24.5795 39.8494ZM24.5795 39.8494C24.1668 39.8063 23.8215 39.5178 23.7028 39.1191C23.7028 39.119 23.7027 39.1189 23.7027 39.1187L20.7959 29.1181L20.7958 29.1178C20.6552 28.639 20.8781 28.1283 21.3255 27.9065L21.326 27.9063C21.5437 27.7975 21.736 27.6737 21.9254 27.5178L21.9255 27.5177C22.1879 27.3015 22.5388 27.2308 22.8667 27.3252C23.6309 27.5504 24.3276 27.544 24.9218 27.2925C25.555 27.0364 26.0649 26.5324 26.4542 25.8083C26.615 25.511 26.91 25.3115 27.2428 25.2733M24.5795 39.8494L27.2428 25.2733M27.2428 25.2733C28.0831 25.1794 28.7519 24.9051 29.2124 24.4435L27.2428 25.2733Z" stroke="url(#paint0_linear_34_3769)" stroke-opacity="0.12" stroke-width="0.28909"/>
<path d="M15.3579 40C14.9322 40 14.5338 39.7677 14.3278 39.3866L11.7251 34.4268L6.91818 37.0523C6.50619 37.2801 5.98653 37.2321 5.62033 36.9344C5.25178 36.6357 5.0984 36.1448 5.23349 35.6892L8.58694 24.4145C8.71515 23.9853 9.07683 23.666 9.51859 23.5927C9.95347 23.5161 10.4045 23.7026 10.6654 24.0677C10.741 24.1753 10.8165 24.2691 10.8943 24.3458C11.2972 24.7636 11.8947 25.0177 12.7301 25.1344C13.0918 25.1836 13.41 25.3999 13.5885 25.717C13.9845 26.414 14.4629 26.8832 15.0123 27.1121C15.5937 27.3708 16.269 27.3753 17.0358 27.143C17.4135 27.0286 17.8232 27.1121 18.1254 27.3639C18.3108 27.5185 18.5305 27.6626 18.8189 27.8183C19.3088 28.0815 19.5468 28.6515 19.3889 29.1837L16.4818 39.1611C16.3467 39.6154 15.9508 39.944 15.4792 39.9931C15.4381 39.9978 15.3992 40 15.3579 40V40Z" fill="#27282A"/>
<path d="M11.7848 34.2295L11.8531 34.3596L14.455 39.3178C14.4551 39.3181 14.4552 39.3183 14.4554 39.3186C14.636 39.652 14.9849 39.8555 15.3579 39.8555C15.3935 39.8555 15.427 39.8536 15.4629 39.8495L15.4643 39.8493C15.8776 39.8063 16.2247 39.5183 16.3432 39.1202C16.3432 39.1201 16.3432 39.12 16.3433 39.1199L19.2501 29.1433L19.2503 29.1426C19.3887 28.6762 19.1802 28.1765 18.7505 27.9456L18.7503 27.9455C18.4561 27.7867 18.2277 27.6374 18.0328 27.4749M11.7848 34.2295L18.1253 27.3639M11.7848 34.2295L11.6558 34.2999L6.84889 36.9255L6.84825 36.9258C6.48833 37.1248 6.03237 37.083 5.71149 36.8223L5.71134 36.8221C5.38807 36.5601 5.25369 36.1297 5.37204 35.7304C5.37205 35.7303 5.37206 35.7303 5.37207 35.7303L8.72544 24.4559C8.72545 24.4558 8.72546 24.4558 8.72548 24.4557C8.83796 24.0794 9.15512 23.7995 9.54225 23.7353L9.54225 23.7353L9.54368 23.735C9.92252 23.6683 10.3182 23.8309 10.5475 24.1512C10.6255 24.2623 10.7061 24.363 10.7916 24.4475C11.2253 24.8965 11.8582 25.1585 12.7101 25.2776L12.7107 25.2776C13.0275 25.3208 13.3062 25.5103 13.4626 25.7879L13.4628 25.7884C13.8688 26.5029 14.3679 26.9998 14.9551 27.2449M11.7848 34.2295L15.0123 27.1121M18.0328 27.4749L18.1253 27.3639M18.0328 27.4749C18.0328 27.475 18.0328 27.475 18.0328 27.475L18.1253 27.3639M18.0328 27.4749C17.768 27.2543 17.4088 27.181 17.0777 27.2814L17.0777 27.2814C16.2887 27.5204 15.5765 27.5208 14.9551 27.2449M18.1253 27.3639C17.8232 27.1121 17.4135 27.0286 17.0358 27.143C16.269 27.3753 15.5937 27.3708 15.0123 27.1121M14.9551 27.2449C14.9557 27.2451 14.9562 27.2453 14.9567 27.2455L15.0123 27.1121M14.9551 27.2449C14.9546 27.2446 14.9541 27.2444 14.9536 27.2442L15.0123 27.1121" stroke="url(#paint1_linear_34_3769)" stroke-opacity="0.12" stroke-width="0.28909"/>
<path d="M20.0001 30.4678C18.9492 30.4678 18.0132 30.1208 17.125 29.5362C16.0309 29.7674 15.0031 29.6735 14.0852 29.2649C13.2176 28.9032 12.4623 28.2611 11.8511 27.3593C10.7478 27.1246 9.88255 26.6725 9.21874 25.9858C8.50492 25.2608 8.07003 24.3147 7.86595 23.3179C6.94118 22.709 6.28197 21.9285 5.90428 20.9911C5.53573 20.111 5.45103 19.1038 5.6548 18.0589C5.0642 17.1616 4.7644 16.2128 4.7644 15.2319C4.7644 14.2476 5.07803 13.2839 5.69606 12.3591C5.46947 11.2593 5.5587 10.2395 5.96616 9.32041C6.32784 8.45056 6.97102 7.69518 7.8729 7.08285C8.10636 5.97955 8.55961 5.11431 9.24632 4.45049C9.92841 3.76949 10.828 3.31171 11.9176 3.09536C12.5265 2.17285 13.3048 1.51592 14.2409 1.13713C15.1222 0.770844 16.1294 0.681617 17.1732 0.88648C18.9655 -0.298086 21.0279 -0.307228 22.8729 0.928828C23.9648 0.703338 25.0039 0.796081 25.9127 1.19776C26.7825 1.56061 27.5379 2.20262 28.1491 3.10451C29.2524 3.33914 30.1176 3.79121 30.7814 4.47792C31.4635 5.16236 31.9191 6.0608 32.1366 7.14692C33.0591 7.75581 33.7183 8.53635 34.096 9.47261C34.4645 10.3528 34.5492 11.3599 34.3454 12.4048C34.936 13.3021 35.2358 14.251 35.2358 15.2318C35.2358 16.2162 34.9222 17.1798 34.3042 18.1046C34.5308 19.2045 34.4415 20.2243 34.0341 21.1433C33.6724 22.0143 33.0269 22.7708 32.1227 23.3832C31.8647 24.5679 31.4293 25.3266 30.7722 25.9961C30.074 26.6919 29.1721 27.152 28.0826 27.3683C27.4737 28.2897 26.6954 28.9478 25.7592 29.3265C24.8802 29.6962 23.8776 29.7832 22.8293 29.5772C21.9746 30.126 21.0277 30.4678 20.0001 30.4678V30.4678Z" fill="#FABE2C"/>
<path d="M20.0001 30.4678C18.9492 30.4678 18.0132 30.1208 17.125 29.5362C16.0309 29.7674 15.0031 29.6735 14.0852 29.2649C13.2176 28.9032 12.4623 28.2611 11.8511 27.3593C10.7478 27.1246 9.88255 26.6725 9.21874 25.9858C8.50492 25.2608 8.07003 24.3147 7.86595 23.3179C6.94118 22.709 6.28197 21.9285 5.90428 20.9911C5.53573 20.111 5.45103 19.1038 5.6548 18.0589C5.0642 17.1616 4.7644 16.2128 4.7644 15.2319C4.7644 14.2476 5.07803 13.2839 5.69606 12.3591C5.46947 11.2593 5.5587 10.2395 5.96616 9.32041C6.32784 8.45056 6.97102 7.69518 7.8729 7.08285C8.10636 5.97955 8.55961 5.11431 9.24632 4.45049C9.92841 3.76949 10.828 3.31171 11.9176 3.09536C12.5265 2.17285 13.3048 1.51592 14.2409 1.13713C15.1222 0.770844 16.1294 0.681617 17.1732 0.88648C18.9655 -0.298086 21.0279 -0.307228 22.8729 0.928828C23.9648 0.703338 25.0039 0.796081 25.9127 1.19776C26.7825 1.56061 27.5379 2.20262 28.1491 3.10451C29.2524 3.33914 30.1176 3.79121 30.7814 4.47792C31.4635 5.16236 31.9191 6.0608 32.1366 7.14692C33.0591 7.75581 33.7183 8.53635 34.096 9.47261C34.4645 10.3528 34.5492 11.3599 34.3454 12.4048C34.936 13.3021 35.2358 14.251 35.2358 15.2318C35.2358 16.2162 34.9222 17.1798 34.3042 18.1046C34.5308 19.2045 34.4415 20.2243 34.0341 21.1433C33.6724 22.0143 33.0269 22.7708 32.1227 23.3832C31.8647 24.5679 31.4293 25.3266 30.7722 25.9961C30.074 26.6919 29.1721 27.152 28.0826 27.3683C27.4737 28.2897 26.6954 28.9478 25.7592 29.3265C24.8802 29.6962 23.8776 29.7832 22.8293 29.5772C21.9746 30.126 21.0277 30.4678 20.0001 30.4678V30.4678Z" fill="url(#paint2_linear_34_3769)"/>
<path d="M20 25.7799C14.1836 25.7799 9.45215 21.0484 9.45215 15.232C9.45215 9.41555 14.1836 4.68408 20 4.68408C25.8164 4.68408 30.5479 9.41555 30.5479 15.232C30.5479 21.0484 25.8164 25.7799 20 25.7799Z" fill="url(#paint3_linear_34_3769)" fill-opacity="0.16"/>
<path d="M20 25.6353C14.2634 25.6353 9.59668 20.9686 9.59668 15.232C9.59668 9.49537 14.2634 4.82861 20 4.82861C25.7366 4.82861 30.4034 9.49537 30.4034 15.232C30.4034 20.9686 25.7366 25.6353 20 25.6353Z" stroke="url(#paint4_linear_34_3769)" stroke-opacity="0.12" stroke-width="0.289062"/>
<path d="M21.8701 19.5915L20 18.6197L18.1298 19.5915C17.7383 19.7941 17.2599 19.7586 16.9006 19.4999C16.5412 19.2389 16.3604 18.7972 16.4336 18.36L16.777 16.278L15.2777 14.7982C14.9514 14.4801 14.8516 14.0084 14.9847 13.6011C15.1221 13.1798 15.486 12.8708 15.9255 12.8045L18.0085 12.4909L18.9516 10.6059C19.3499 9.81156 20.65 9.81156 21.0483 10.6059L21.9914 12.4909L24.0744 12.8045C24.5139 12.8709 24.8779 13.1799 25.0152 13.6011C25.1526 14.0234 25.0404 14.4869 24.7222 14.7982L23.2229 16.278L23.5663 18.36C23.6396 18.7972 23.4587 19.2389 23.0993 19.4999C22.7424 19.7586 22.2648 19.7968 21.8701 19.5915V19.5915Z" fill="url(#paint5_linear_34_3769)"/>
</g>
<defs>
<linearGradient id="paint0_linear_34_3769" x1="20.0612" y1="20.2371" x2="35.1251" y2="21.0392" gradientUnits="userSpaceOnUse">
<stop stop-color="white" stop-opacity="0.37"/>
<stop offset="1" stop-color="white"/>
</linearGradient>
<linearGradient id="paint1_linear_34_3769" x1="4.63689" y1="20.2908" x2="19.7014" y2="21.0953" gradientUnits="userSpaceOnUse">
<stop stop-color="white" stop-opacity="0.37"/>
<stop offset="1" stop-color="white"/>
</linearGradient>
<linearGradient id="paint2_linear_34_3769" x1="26.2507" y1="-0.000122033" x2="9.45629" y2="26.5832" gradientUnits="userSpaceOnUse">
<stop stop-color="#131416"/>
<stop offset="1" stop-color="#1A1B1F"/>
</linearGradient>
<linearGradient id="paint3_linear_34_3769" x1="8.64077" y1="0.464931" x2="30.9179" y2="1.83583" gradientUnits="userSpaceOnUse">
<stop stop-color="white" stop-opacity="0.37"/>
<stop offset="1" stop-color="white"/>
</linearGradient>
<linearGradient id="paint4_linear_34_3769" x1="8.64077" y1="0.464931" x2="30.9179" y2="1.83583" gradientUnits="userSpaceOnUse">
<stop stop-color="white" stop-opacity="0.37"/>
<stop offset="1" stop-color="white"/>
</linearGradient>
<linearGradient id="paint5_linear_34_3769" x1="25.0729" y1="10.0101" x2="14.1995" y2="16.129" gradientUnits="userSpaceOnUse">
<stop stop-color="#B0FF4D"/>
<stop offset="1" stop-color="#FFE926"/>
</linearGradient>
<clipPath id="clip0_34_3769">
<rect width="40" height="40" fill="white"/>
</clipPath>
</defs>
</svg>
