<svg width="16" height="16" viewBox="0 0 16 16" fill="none" xmlns="http://www.w3.org/2000/svg">
<path d="M8.59338 3.92H3.4067C2.2667 3.92 1.33337 4.85333 1.33337 5.99333V13.5667C1.33337 14.5333 2.02671 14.9467 2.87337 14.4733L5.49337 13.0133C5.77337 12.86 6.22671 12.86 6.50004 13.0133L9.12004 14.4733C9.9667 14.9467 10.66 14.5333 10.66 13.5667V5.99333C10.6667 4.85333 9.73338 3.92 8.59338 3.92Z" stroke="white" stroke-width="1.5" stroke-linecap="round" stroke-linejoin="round"/>
<path d="M10.6667 5.99333V13.5667C10.6667 14.5333 9.97338 14.94 9.12671 14.4733L6.50671 13.0133C6.22671 12.86 5.77337 12.86 5.49337 13.0133L2.87337 14.4733C2.02671 14.94 1.33337 14.5333 1.33337 13.5667V5.99333C1.33337 4.85333 2.2667 3.92 3.4067 3.92H8.59338C9.73338 3.92 10.6667 4.85333 10.6667 5.99333Z" stroke="#18181B" stroke-width="1.5" stroke-linecap="round" stroke-linejoin="round"/>
<path d="M14.6667 3.40666V10.98C14.6667 11.9467 13.9734 12.3533 13.1267 11.8867L10.6667 10.5133V5.99333C10.6667 4.85333 9.73338 3.92 8.59338 3.92H5.33337V3.40666C5.33337 2.26666 6.2667 1.33333 7.4067 1.33333H12.5934C13.7334 1.33333 14.6667 2.26666 14.6667 3.40666Z" stroke="#18181B" stroke-width="1.5" stroke-linecap="round" stroke-linejoin="round"/>
</svg>
