<svg width="20" height="20" viewBox="0 0 20 20" fill="none" xmlns="http://www.w3.org/2000/svg">
<path d="M10 18.3333C14.6 18.3333 18.3334 14.6 18.3334 9.99996C18.3334 5.39996 14.6 1.66663 10 1.66663C5.40002 1.66663 1.66669 5.39996 1.66669 9.99996C1.66669 14.6 5.40002 18.3333 10 18.3333Z" stroke="#A1A1AA" stroke-width="1.5" stroke-linecap="round" stroke-linejoin="round"/>
<path d="M10 13.3333C11.8417 13.3333 13.3334 11.8416 13.3334 9.99996C13.3334 8.15829 11.8417 6.66663 10 6.66663C8.15835 6.66663 6.66669 8.15829 6.66669 9.99996C6.66669 11.8416 8.15835 13.3333 10 13.3333Z" stroke="#A1A1AA" stroke-width="1.5" stroke-linecap="round" stroke-linejoin="round"/>
<path d="M17.6417 6.66665C15.125 6.11665 12.5167 6.11665 10 6.66665" stroke="#A1A1AA" stroke-width="1.5" stroke-linecap="round" stroke-linejoin="round"/>
<path d="M3.29169 5.05005L3.30835 5.10005C4.15002 7.50838 5.44169 9.74172 7.11669 11.6667" stroke="#A1A1AA" stroke-width="1.5" stroke-linecap="round" stroke-linejoin="round"/>
<path d="M9.06665 18.2833C10.7833 16.3916 12.075 14.1583 12.8583 11.7333L12.8833 11.6666" stroke="#A1A1AA" stroke-width="1.5" stroke-linecap="round" stroke-linejoin="round"/>
</svg>
