<svg width="20" height="20" viewBox="0 0 20 20" fill="none" xmlns="http://www.w3.org/2000/svg">
<rect y="2.85828" width="20" height="14.2857" rx="2" fill="white"/>
<mask id="mask0_89_6432" style="mask-type:luminance" maskUnits="userSpaceOnUse" x="0" y="2" width="20" height="16">
<rect y="2.85828" width="20" height="14.2857" rx="2" fill="white"/>
</mask>
<g mask="url(#mask0_89_6432)">
<rect y="2.85828" width="20" height="14.2857" fill="#F1361D"/>
<path fill-rule="evenodd" clip-rule="evenodd" d="M7.19473 5.07311L7.88648 5.19104L8.40529 5.66354L8.52322 4.97179L8.99572 4.45298L8.30397 4.33505L7.78516 3.86255L7.66723 4.55429L7.19473 5.07311ZM9.0476 7.49264L9.64704 7.12782L10.3486 7.14404L9.98376 6.5446L9.99998 5.84307L9.40054 6.20789L8.69901 6.19166L9.06383 6.7911L9.0476 7.49264ZM8.23448 11.4089L7.64814 11.7945L7.63987 11.0928L7.25436 10.5064L7.95603 10.4982L8.54237 10.1127L8.55064 10.8143L8.93616 11.4007L8.23448 11.4089ZM8.74367 9.59502L9.44112 9.51771L10.0701 9.8289L9.99277 9.13145L10.304 8.50249L9.6065 8.5798L8.97755 8.26861L9.05486 8.96607L8.74367 9.59502Z" fill="#FFDC42"/>
<path fill-rule="evenodd" clip-rule="evenodd" d="M4.76193 8.73449L3.08254 9.93168L3.70218 7.96454L2.04462 6.7373L4.10697 6.71873L4.76193 4.76306L5.41689 6.71873L7.47923 6.7373L5.82168 7.96454L6.44131 9.93168L4.76193 8.73449Z" fill="#FFDC42"/>
</g>
</svg>
