<svg width="58" height="60" viewBox="0 0 58 60" fill="none" xmlns="http://www.w3.org/2000/svg">
<g filter="url(#filter0_d_0_6616)">
<path d="M28 34.3333H25C23.5333 34.3333 22.3333 35.5333 22.3333 37V37.3333H21C20.4533 37.3333 20 37.7867 20 38.3333C20 38.88 20.4533 39.3333 21 39.3333H37C37.5467 39.3333 38 38.88 38 38.3333C38 37.7867 37.5467 37.3333 37 37.3333H35.6667V37C35.6667 35.5333 34.4667 34.3333 33 34.3333H30V31.28C29.6667 31.32 29.3333 31.3333 29 31.3333C28.6667 31.3333 28.3333 31.32 28 31.28V34.3333Z" fill="#FE6712"/>
<path d="M37.64 25.52C38.52 25.1867 39.2934 24.64 39.9067 24.0267C41.1467 22.6533 41.96 21.0133 41.96 19.0933C41.96 17.1733 40.4534 15.6667 38.5334 15.6667H37.7867C36.92 13.8933 35.1067 12.6667 33 12.6667H25C22.8934 12.6667 21.08 13.8933 20.2134 15.6667H19.4667C17.5467 15.6667 16.04 17.1733 16.04 19.0933C16.04 21.0133 16.8534 22.6533 18.0934 24.0267C18.7067 24.64 19.48 25.1867 20.36 25.52C21.7467 28.9333 25.08 31.3333 29 31.3333C32.92 31.3333 36.2534 28.9333 37.64 25.52ZM32.7867 21.2667L31.96 22.28C31.8267 22.4267 31.7334 22.72 31.7467 22.92L31.8267 24.2267C31.88 25.0267 31.3067 25.44 30.56 25.1467L29.3467 24.6667C29.16 24.6 28.84 24.6 28.6534 24.6667L27.44 25.1467C26.6934 25.44 26.12 25.0267 26.1734 24.2267L26.2534 22.92C26.2667 22.72 26.1734 22.4267 26.04 22.28L25.2134 21.2667C24.6934 20.6533 24.92 19.9733 25.6934 19.7733L26.96 19.4533C27.16 19.4 27.4 19.2133 27.5067 19.04L28.2134 17.9467C28.6534 17.2667 29.3467 17.2667 29.7867 17.9467L30.4934 19.04C30.6 19.2133 30.84 19.4 31.04 19.4533L32.3067 19.7733C33.08 19.9733 33.3067 20.6533 32.7867 21.2667Z" fill="#FE6712"/>
</g>
<defs>
<filter id="filter0_d_0_6616" x="-3" y="-2" width="64" height="64" filterUnits="userSpaceOnUse" color-interpolation-filters="sRGB">
<feFlood flood-opacity="0" result="BackgroundImageFix"/>
<feColorMatrix in="SourceAlpha" type="matrix" values="0 0 0 0 0 0 0 0 0 0 0 0 0 0 0 0 0 0 127 0" result="hardAlpha"/>
<feOffset dy="4"/>
<feGaussianBlur stdDeviation="8"/>
<feComposite in2="hardAlpha" operator="out"/>
<feColorMatrix type="matrix" values="0 0 0 0 0.970937 0 0 0 0 0.598163 0 0 0 0 0.254063 0 0 0 0.48 0"/>
<feBlend mode="normal" in2="BackgroundImageFix" result="effect1_dropShadow_0_6616"/>
<feBlend mode="normal" in="SourceGraphic" in2="effect1_dropShadow_0_6616" result="shape"/>
</filter>
</defs>
</svg>
