<svg width="20" height="20" viewBox="0 0 20 20" fill="none" xmlns="http://www.w3.org/2000/svg">
<path d="M18.3322 10.1847C18.3423 9.61158 18.2818 9.03848 18.1541 8.48185H10.1692V11.5746H14.8573C14.6792 12.6714 14.0507 13.6464 13.1198 14.2787L13.103 14.3809L15.6269 16.2978L15.8016 16.3143C17.4047 14.8617 18.3322 12.7241 18.3322 10.1847Z" fill="#4285F4"/>
<path d="M10.1692 18.3333C12.4645 18.3333 14.3935 17.5922 15.8016 16.3143L13.1198 14.2755C12.2494 14.8486 11.2177 15.1384 10.1725 15.1088C7.96795 15.0956 6.01877 13.6991 5.33319 11.6438L5.23237 11.6537L2.6077 13.6431L2.5741 13.7353C4.01246 16.558 6.95303 18.3366 10.1692 18.3333Z" fill="#34A853"/>
<path d="M5.32986 11.6471C5.14502 11.1168 5.04757 10.5601 5.04757 9.99692C5.05093 9.43699 5.14503 8.88035 5.32314 8.34677L5.31978 8.23808L2.6615 6.21575L2.57412 6.25528C1.36429 8.61027 1.36429 11.3836 2.57412 13.7386L5.32986 11.6471Z" fill="#FBBC05"/>
<path d="M10.1692 4.88844C11.3891 4.86867 12.5653 5.31332 13.4559 6.13016L15.8554 3.83445C14.3162 2.41817 12.2763 1.64415 10.1658 1.6672C6.94968 1.6672 4.0091 3.44251 2.56738 6.26191L5.3164 8.35341C6.00869 6.29814 7.96123 4.90161 10.1692 4.88844Z" fill="#EB4335"/>
</svg>
