<svg width="27" height="24" viewBox="0 0 27 24" fill="none" xmlns="http://www.w3.org/2000/svg">
<path d="M27 7.49997C27 11.325 24.7875 15.25 20.425 19.175C18.444 20.9558 16.2871 22.5306 13.9875 23.875C13.8381 23.957 13.6704 24.0001 13.5 24.0001C13.3296 24.0001 13.1619 23.957 13.0125 23.875C12.6125 23.65 5.4625 19.5875 1.9375 13.7625C1.8908 13.6868 1.86514 13.6 1.86317 13.511C1.86121 13.4221 1.883 13.3342 1.92631 13.2565C1.96962 13.1788 2.03287 13.1141 2.10955 13.069C2.18622 13.0239 2.27354 13.0001 2.3625 13H6.5C6.66619 13.0015 6.83007 12.9611 6.97647 12.8824C7.12287 12.8037 7.24705 12.6894 7.3375 12.55L8.5 10.8L11.6625 15.55C11.7849 15.7323 11.9632 15.87 12.1707 15.9421C12.3781 16.0143 12.6034 16.017 12.8125 15.95C13.0306 15.8724 13.2187 15.7281 13.35 15.5375L15.0375 13H17.4625C17.722 13.0041 17.9734 12.9096 18.1659 12.7356C18.3585 12.5616 18.4779 12.321 18.5 12.0625C18.5085 11.926 18.489 11.7892 18.4426 11.6606C18.3962 11.5319 18.3239 11.4142 18.2302 11.3146C18.1364 11.215 18.0233 11.1357 17.8977 11.0816C17.7721 11.0275 17.6368 10.9997 17.5 11H14.5C14.3338 10.9984 14.1699 11.0389 14.0235 11.1175C13.8771 11.1962 13.753 11.3105 13.6625 11.45L12.5 13.2L9.3375 8.44997C9.21513 8.26759 9.03678 8.12995 8.82934 8.05779C8.62191 7.98564 8.39663 7.9829 8.1875 8.04997C7.96939 8.12749 7.7813 8.27184 7.65 8.46247L5.9625 11H0.975C0.868938 10.9996 0.765757 10.9654 0.680371 10.9025C0.594985 10.8396 0.531818 10.7511 0.5 10.65C0.177994 9.63059 0.00948166 8.56896 0 7.49997C0 5.92585 0.49528 4.39163 1.41568 3.11464C2.33609 1.83765 3.63495 0.882625 5.12829 0.384845C6.62163 -0.112935 8.23374 -0.128233 9.73626 0.341118C11.2388 0.810469 12.5555 1.74067 13.5 2.99997C14.4445 1.74067 15.7612 0.810469 17.2637 0.341118C18.7663 -0.128233 20.3784 -0.112935 21.8717 0.384845C23.365 0.882625 24.6639 1.83765 25.5843 3.11464C26.5047 4.39163 27 5.92585 27 7.49997Z" fill="#EC4899"/>
</svg>
