<svg width="20" height="20" viewBox="0 0 20 20" fill="none" xmlns="http://www.w3.org/2000/svg">
<g clip-path="url(#clip0_89_1169)">
<path d="M15.3125 0H4.6875C2.09867 0 0 2.09867 0 4.6875V15.3125C0 17.9013 2.09867 20 4.6875 20H15.3125C17.9013 20 20 17.9013 20 15.3125V4.6875C20 2.09867 17.9013 0 15.3125 0Z" fill="url(#paint0_linear_89_1169)"/>
<path d="M7.94016 14.2671C7.94016 14.2671 7.34016 14.6323 8.35774 14.7367C9.58649 14.8933 10.2362 14.8671 11.5927 14.6064C11.5927 14.6064 11.9578 14.8415 12.4536 15.0239C9.40086 16.3283 5.53977 14.9456 7.94016 14.2671ZM7.54883 12.5714C7.54883 12.5714 6.89649 13.0672 7.91399 13.1713C9.2443 13.3017 10.2883 13.3279 12.0884 12.963C12.0884 12.963 12.3235 13.224 12.7146 13.3544C9.03625 14.4501 4.91383 13.4585 7.54883 12.5717V12.5714ZM14.7496 15.5456C14.7496 15.5456 15.193 15.9108 14.2538 16.198C12.5057 16.7197 6.92266 16.8765 5.35727 16.198C4.80969 15.9629 5.85313 15.6236 6.19211 15.5718C6.53133 15.4935 6.71383 15.4935 6.71383 15.4935C6.11383 15.076 2.72203 16.3545 4.99188 16.7224C11.2273 17.7401 16.3671 16.2789 14.7494 15.5483L14.7496 15.5456ZM8.22711 10.7971C8.22711 10.7971 5.3832 11.4756 7.2093 11.7102C7.99203 11.8143 9.53125 11.7884 10.9663 11.684C12.1403 11.5798 13.317 11.3709 13.317 11.3709C13.317 11.3709 12.8995 11.5536 12.6126 11.7361C9.71422 12.4934 4.15711 12.1542 5.74867 11.3714C7.10571 10.7191 8.22711 10.7971 8.22711 10.7971ZM13.3143 13.6409C16.2367 12.1277 14.8797 10.6667 13.9405 10.8495C13.7054 10.9016 13.6013 10.9537 13.6013 10.9537C13.6013 10.9537 13.6795 10.7971 13.8622 10.7453C15.7145 10.093 17.1757 12.702 13.2623 13.7195C13.2623 13.7195 13.2884 13.6934 13.3143 13.6413V13.6409ZM8.51399 17.7628C11.3317 17.9456 15.6365 17.6586 15.7409 16.3277C15.7409 16.3277 15.5326 16.8495 13.4191 17.2409C11.0189 17.6843 8.04438 17.6322 6.29656 17.345C6.29656 17.345 6.66172 17.6581 8.51422 17.7625L8.51399 17.7628Z" fill="url(#paint1_linear_89_1169)"/>
<g filter="url(#filter0_d_89_1169)">
<path d="M11.5379 2.1875C11.5379 2.1875 13.1554 3.83117 9.99867 6.30938C7.46789 8.31813 9.42437 9.46625 9.99867 10.7704C8.51156 9.44008 7.44226 8.26578 8.17234 7.17C9.24461 5.55336 12.1923 4.77062 11.5379 2.1875ZM10.7031 9.67516C11.4596 10.5361 10.4948 11.3188 10.4948 11.3188C10.4948 11.3188 12.4253 10.3277 11.5384 9.10109C10.7295 7.92703 10.1034 7.35297 13.4952 5.39602C13.4952 5.39602 8.14672 6.72633 10.7037 9.67461L10.7031 9.67516Z" fill="url(#paint2_linear_89_1169)"/>
<path d="M9.90942 6.19569L9.90882 6.19617C9.26544 6.70684 8.89231 7.17421 8.71596 7.61698C8.53755 8.06493 8.56601 8.4739 8.6978 8.85171C8.82747 9.22347 9.0581 9.56704 9.28191 9.88828C9.2911 9.90147 9.30028 9.91462 9.30944 9.92773C8.91752 9.53742 8.59469 9.1652 8.37764 8.8073C8.20398 8.52094 8.10334 8.25204 8.08473 7.99724C8.06635 7.74563 8.12716 7.49848 8.29262 7.25014L8.29279 7.24989C8.54822 6.86478 8.91917 6.52406 9.33412 6.18458C9.46768 6.07531 9.60667 5.96554 9.74717 5.85458C10.0365 5.6261 10.3322 5.39256 10.6001 5.14791C11.0012 4.78161 11.3587 4.37487 11.5714 3.88612C11.6891 3.61573 11.7613 3.3232 11.7741 3.00262C11.7936 3.09982 11.806 3.20613 11.8075 3.32107C11.8165 3.98076 11.4671 4.97281 9.90942 6.19569ZM11.2226 6.54872C11.5639 6.31352 11.944 6.11993 12.2966 5.96707C11.999 6.16789 11.7525 6.35291 11.5508 6.52564C11.1367 6.88025 10.8985 7.19383 10.8035 7.49922C10.7062 7.81224 10.766 8.09389 10.8956 8.36448C10.999 8.58056 11.1533 8.80147 11.3143 9.03193C11.3492 9.08185 11.3844 9.13223 11.4194 9.18309L11.4194 9.18312L11.4213 9.18578C11.6204 9.46108 11.6555 9.71168 11.6081 9.93513C11.5594 10.1651 11.4197 10.3812 11.2432 10.5717C11.1883 10.6309 11.1307 10.6867 11.0725 10.7388C11.1199 10.6025 11.1473 10.4488 11.1338 10.2834C11.1178 10.0889 11.046 9.88687 10.8972 9.68551L10.9011 9.68162L10.8129 9.57991C10.1941 8.86642 10.0749 8.2782 10.2009 7.79904C10.3297 7.30915 10.7248 6.89169 11.2226 6.54872Z" stroke="url(#paint3_linear_89_1169)" stroke-opacity="0.12" stroke-width="0.289062"/>
</g>
</g>
<defs>
<filter id="filter0_d_89_1169" x="5.93703" y="0.1875" width="9.55812" height="13.1313" filterUnits="userSpaceOnUse" color-interpolation-filters="sRGB">
<feFlood flood-opacity="0" result="BackgroundImageFix"/>
<feColorMatrix in="SourceAlpha" type="matrix" values="0 0 0 0 0 0 0 0 0 0 0 0 0 0 0 0 0 0 127 0" result="hardAlpha"/>
<feOffset/>
<feGaussianBlur stdDeviation="1"/>
<feComposite in2="hardAlpha" operator="out"/>
<feColorMatrix type="matrix" values="0 0 0 0 0.482353 0 0 0 0 0.839216 0 0 0 0 1 0 0 0 0.24 0"/>
<feBlend mode="normal" in2="BackgroundImageFix" result="effect1_dropShadow_89_1169"/>
<feBlend mode="normal" in="SourceGraphic" in2="effect1_dropShadow_89_1169" result="shape"/>
</filter>
<linearGradient id="paint0_linear_89_1169" x1="14.1026" y1="2.42538e-08" x2="3.07773" y2="17.4489" gradientUnits="userSpaceOnUse">
<stop stop-color="#131416"/>
<stop offset="1" stop-color="#1A1B1F"/>
</linearGradient>
<linearGradient id="paint1_linear_89_1169" x1="15.7409" y1="10.642" x2="6.4469" y2="18.688" gradientUnits="userSpaceOnUse">
<stop stop-color="#B0FF4D"/>
<stop offset="1" stop-color="#FFE926"/>
</linearGradient>
<linearGradient id="paint2_linear_89_1169" x1="7.93703" y1="2.1875" x2="14.266" y2="2.75738" gradientUnits="userSpaceOnUse">
<stop stop-color="#048CD7"/>
<stop offset="1" stop-color="#7AD6FF"/>
</linearGradient>
<linearGradient id="paint3_linear_89_1169" x1="7.72326" y1="0.361236" x2="13.6066" y2="0.581612" gradientUnits="userSpaceOnUse">
<stop stop-color="white" stop-opacity="0.37"/>
<stop offset="1" stop-color="white"/>
</linearGradient>
<clipPath id="clip0_89_1169">
<rect width="20" height="20" fill="white"/>
</clipPath>
</defs>
</svg>
