<svg width="20" height="20" viewBox="0 0 20 20" fill="none" xmlns="http://www.w3.org/2000/svg">
<path d="M0 1.43266C0 0.641875 0.662031 0 1.47812 0H18.5219C19.3383 0 20 0.641875 20 1.43266V18.5676C20 19.3586 19.3383 20 18.5219 20H1.47812C0.662109 20 0 19.3587 0 18.5678V1.43242V1.43266Z" fill="#2867B2"/>
<path d="M6.07779 16.7373V7.73328H3.08498V16.7373H6.0781H6.07779ZM4.58201 6.50414C5.62544 6.50414 6.27505 5.81273 6.27505 4.94867C6.25552 4.06492 5.62544 3.39281 4.60185 3.39281C3.57755 3.39281 2.90857 4.06492 2.90857 4.94859C2.90857 5.81266 3.55794 6.50406 4.5624 6.50406H4.58177L4.58201 6.50414ZM7.73435 16.7373H10.7269V11.7096C10.7269 11.4409 10.7465 11.1714 10.8255 10.9795C11.0418 10.4416 11.5342 9.88477 12.3611 9.88477C13.4438 9.88477 13.8772 10.7104 13.8772 11.9209V16.7373H16.8697V11.5747C16.8697 8.80914 15.3934 7.52219 13.4244 7.52219C11.8101 7.52219 11.1011 8.42445 10.7072 9.03898H10.7272V7.73359H7.73451C7.77357 8.57828 7.73427 16.7377 7.73427 16.7377L7.73435 16.7373Z" fill="white"/>
</svg>
