<svg width="20" height="20" viewBox="0 0 20 20" fill="none" xmlns="http://www.w3.org/2000/svg">
<rect width="20" height="20" rx="4" fill="url(#paint0_linear_89_1206)"/>
<path d="M10 16.875C9.8145 16.8751 9.63226 16.8263 9.4716 16.7336L7.79015 15.7382C7.53921 15.5977 7.66148 15.5481 7.74448 15.5191C8.01137 15.4367 8.26691 15.3212 8.50516 15.1754C8.5251 15.1662 8.54707 15.1622 8.56898 15.1638C8.59089 15.1654 8.61203 15.1726 8.63038 15.1847L9.92241 15.9523C9.94647 15.965 9.97327 15.9716 10.0005 15.9716C10.0277 15.9716 10.0545 15.965 10.0786 15.9523L15.117 13.0441C15.1406 13.03 15.1601 13.01 15.1736 12.986C15.1871 12.9621 15.1942 12.9351 15.1941 12.9076V7.09027C15.1942 7.06235 15.187 7.03489 15.1733 7.01055C15.1596 6.98621 15.1399 6.9658 15.1161 6.95129L10.0776 4.04558C10.0538 4.0322 10.027 4.02517 9.99975 4.02517C9.97249 4.02517 9.94568 4.0322 9.92192 4.04558L4.8864 6.95227C4.86238 6.96648 4.84244 6.98665 4.8285 7.01082C4.81456 7.035 4.8071 7.06236 4.80685 7.09027V12.9051C4.80692 12.9325 4.81427 12.9595 4.82817 12.9831C4.84206 13.0067 4.86199 13.0263 4.88591 13.0397L6.2678 13.8372C7.0167 14.2114 7.47537 13.7704 7.47537 13.3275V7.58625C7.47537 7.54718 7.49089 7.50971 7.51852 7.48208C7.54614 7.45445 7.58362 7.43893 7.62269 7.43893H8.26109C8.30016 7.43893 8.33764 7.45445 8.36526 7.48208C8.39289 7.50971 8.40841 7.54718 8.40841 7.58625V13.3279C8.40841 14.3273 7.8643 14.8994 6.91652 14.8994C6.50764 14.9065 6.10517 14.7972 5.7561 14.5841L4.43166 13.8244C4.27088 13.7308 4.13747 13.5966 4.04475 13.4353C3.95203 13.274 3.90324 13.0912 3.90326 12.9051V7.09027C3.90278 6.90392 3.95136 6.72072 4.04412 6.5591C4.13687 6.39747 4.27053 6.2631 4.43166 6.16949L9.47062 3.26035C9.63293 3.17154 9.81498 3.125 10 3.125C10.185 3.125 10.3671 3.17154 10.5294 3.26035L15.5678 6.16949C15.7286 6.26294 15.8621 6.39692 15.9549 6.55806C16.0477 6.7192 16.0966 6.90186 16.0967 7.08781V12.9051C16.0965 13.0912 16.0475 13.2739 15.9547 13.4352C15.8619 13.5965 15.7286 13.7307 15.5678 13.8244L10.5294 16.7336C10.3684 16.8264 10.1858 16.8752 10 16.875Z" fill="url(#paint1_linear_89_1206)"/>
<path d="M9.04436 10.959C9.04436 10.9199 9.05988 10.8824 9.08751 10.8548C9.11514 10.8272 9.15261 10.8117 9.19168 10.8117H9.84335C9.87816 10.8118 9.91182 10.8242 9.93834 10.8468C9.96486 10.8693 9.98253 10.9006 9.98821 10.9349C10.0864 11.5984 10.3811 11.9328 11.7134 11.9328C12.7746 11.9328 13.2269 11.6927 13.2269 11.1294C13.2269 10.8048 13.0987 10.5637 11.4492 10.4021C10.0702 10.2656 9.21771 9.96013 9.21771 8.85815C9.21771 7.84162 10.0746 7.23513 11.511 7.23513C13.1252 7.23513 13.9242 7.79545 14.0254 8.99761C14.0269 9.01768 14.0243 9.03786 14.0178 9.05689C14.0112 9.07592 14.0008 9.09341 13.9873 9.10827C13.9737 9.12314 13.9572 9.13506 13.9388 9.14331C13.9205 9.15156 13.9006 9.15596 13.8805 9.15623H13.2244C13.1915 9.15577 13.1597 9.1443 13.1341 9.12365C13.1084 9.103 13.0904 9.07436 13.083 9.0423C12.9263 8.34448 12.5428 8.12153 11.5115 8.12153C10.3526 8.12153 10.218 8.5252 10.218 8.8277C10.218 9.19405 10.3771 9.3011 11.9417 9.50784C13.4901 9.71262 14.2257 10.0024 14.2257 11.0906C14.2257 12.1886 13.3104 12.8172 11.7139 12.8172C9.50647 12.8202 9.04436 11.8081 9.04436 10.959Z" fill="url(#paint2_linear_89_1206)"/>
<defs>
<linearGradient id="paint0_linear_89_1206" x1="14.1026" y1="2.42538e-08" x2="3.07773" y2="17.4489" gradientUnits="userSpaceOnUse">
<stop stop-color="#131416"/>
<stop offset="1" stop-color="#1A1B1F"/>
</linearGradient>
<linearGradient id="paint1_linear_89_1206" x1="16.0967" y1="3.125" x2="2.0876" y2="9.81816" gradientUnits="userSpaceOnUse">
<stop stop-color="#B0FF4D"/>
<stop offset="1" stop-color="#FFE926"/>
</linearGradient>
<linearGradient id="paint2_linear_89_1206" x1="16.0967" y1="3.125" x2="2.0876" y2="9.81816" gradientUnits="userSpaceOnUse">
<stop stop-color="#B0FF4D"/>
<stop offset="1" stop-color="#FFE926"/>
</linearGradient>
</defs>
</svg>
