<svg width="87" height="88" viewBox="0 0 87 88" fill="none" xmlns="http://www.w3.org/2000/svg">
<g filter="url(#filter0_d_0_6589)">
<path d="M41.7163 25.1148C42.82 24.5173 44.1799 24.5173 45.2836 25.1148L57.5496 31.7549C58.6534 32.3524 59.3333 33.4566 59.3333 34.6516V47.9317C59.3333 49.1267 58.6534 50.231 57.5496 50.8285L45.2836 57.4685C44.1799 58.066 42.82 58.066 41.7163 57.4685L29.4503 50.8285C28.3466 50.231 27.6666 49.1267 27.6666 47.9317V34.6516C27.6666 33.4566 28.3466 32.3524 29.4503 31.7549L41.7163 25.1148Z" fill="url(#paint0_radial_0_6589)"/>
<path d="M45.6605 24.4186C44.3216 23.6938 42.6783 23.6938 41.3394 24.4186L29.0734 31.0587C27.7301 31.7859 26.875 33.1483 26.875 34.6516V47.9317C26.875 49.4351 27.7301 50.7975 29.0734 51.5247L41.3394 58.1647C42.6783 58.8895 44.3216 58.8895 45.6605 58.1647L57.9265 51.5247C59.2698 50.7975 60.125 49.4351 60.125 47.9317V34.6516C60.125 33.1483 59.2698 31.7859 57.9265 31.0587L45.6605 24.4186Z" stroke="#0EA5E9" stroke-width="1.58333"/>
</g>
<defs>
<filter id="filter0_d_0_6589" x="0.74992" y="0.916678" width="85.5" height="87.0833" filterUnits="userSpaceOnUse" color-interpolation-filters="sRGB">
<feFlood flood-opacity="0" result="BackgroundImageFix"/>
<feColorMatrix in="SourceAlpha" type="matrix" values="0 0 0 0 0 0 0 0 0 0 0 0 0 0 0 0 0 0 127 0" result="hardAlpha"/>
<feOffset dy="3.16667"/>
<feGaussianBlur stdDeviation="12.6667"/>
<feComposite in2="hardAlpha" operator="out"/>
<feColorMatrix type="matrix" values="0 0 0 0 0.341176 0 0 0 0 0.27451 0 0 0 0 0.956863 0 0 0 0.5 0"/>
<feBlend mode="normal" in2="BackgroundImageFix" result="effect1_dropShadow_0_6589"/>
<feBlend mode="normal" in="SourceGraphic" in2="effect1_dropShadow_0_6589" result="shape"/>
</filter>
<radialGradient id="paint0_radial_0_6589" cx="0" cy="0" r="1" gradientUnits="userSpaceOnUse" gradientTransform="translate(43.5 41.2917) rotate(90) scale(16.625 15.8333)">
<stop/>
<stop offset="1" stop-color="#222023"/>
</radialGradient>
</defs>
</svg>
