<svg width="20" height="20" viewBox="0 0 20 20" fill="none" xmlns="http://www.w3.org/2000/svg">
<g clip-path="url(#clip0_0_6731)">
<path d="M15.3125 0H4.6875C2.09867 0 0 2.09867 0 4.6875V15.3125C0 17.9013 2.09867 20 4.6875 20H15.3125C17.9013 20 20 17.9013 20 15.3125V4.6875C20 2.09867 17.9013 0 15.3125 0Z" fill="url(#paint0_linear_0_6731)"/>
<path d="M10.0001 11.4806C10.8051 11.4806 11.4576 10.828 11.4576 10.0231C11.4576 9.21813 10.8051 8.56555 10.0001 8.56555C9.19518 8.56555 8.5426 9.21813 8.5426 10.0231C8.5426 10.828 9.19518 11.4806 10.0001 11.4806Z" fill="url(#paint1_linear_0_6731)"/>
<path d="M15.0642 8.04869L15.0643 8.04869C15.8707 8.32632 16.5079 8.6711 16.9382 9.03016C17.3754 9.39497 17.5625 9.74194 17.5625 10.023C17.5625 10.3192 17.3617 10.6876 16.8939 11.0728C16.4335 11.4518 15.7511 11.8148 14.8843 12.102C13.5765 12.5353 11.8404 12.7654 10.0002 12.7654C8.11025 12.7654 6.33704 12.5489 5.01701 12.0978C4.1806 11.812 3.52374 11.4471 3.08115 11.0681C2.6315 10.683 2.4375 10.3149 2.4375 10.023C2.4375 9.74167 2.61709 9.39752 3.03832 9.03713C3.45392 8.68157 4.07322 8.33914 4.86761 8.0622L4.86762 8.0622C6.21094 7.59383 8.0447 7.30957 9.99984 7.30957H10.0002C11.9359 7.30957 13.7253 7.58767 15.0642 8.04869Z" stroke="url(#paint2_linear_0_6731)" stroke-width="0.5"/>
<path d="M7.58656 8.76206C6.63734 10.4278 5.98578 12.123 5.72495 13.4967L5.47934 13.4501L5.72495 13.4967C5.568 14.3232 5.55523 15.0308 5.65561 15.5685C5.75736 16.1135 5.96576 16.4409 6.2094 16.5813L6.20947 16.5813C6.46233 16.7271 6.87813 16.743 7.43638 16.5458C7.98586 16.3518 8.63009 15.965 9.29559 15.3833L9.2956 15.3833C10.3457 14.4654 11.419 13.0375 12.3632 11.4003C13.2826 9.80609 13.9507 8.18733 14.2285 6.83803L14.2285 6.838C14.4127 5.94364 14.4391 5.17108 14.3408 4.58293C14.2408 3.98522 14.022 3.6272 13.7654 3.47923L7.58656 8.76206ZM7.58656 8.76206L7.63692 8.67474C8.60404 6.99787 9.73879 5.5867 10.807 4.65719L10.8071 4.65717C11.4504 4.09723 12.0674 3.71752 12.5935 3.52411C13.1279 3.3276 13.522 3.33886 13.7654 3.47922L7.58656 8.76206Z" stroke="url(#paint3_linear_0_6731)" stroke-width="0.5"/>
<path d="M7.63922 11.4043L7.63922 11.4043C8.61885 13.0964 9.78363 14.541 10.8619 15.4689L10.862 15.4689C11.4997 16.0177 12.1063 16.3821 12.6222 16.5636C13.1452 16.7476 13.533 16.7306 13.7764 16.5896L13.7765 16.5896C14.0291 16.4434 14.2505 16.0911 14.3584 15.509C14.4647 14.9361 14.4514 14.1848 14.2797 13.3177C14.0089 11.9496 13.3079 10.3065 12.361 8.67085C11.439 7.07817 10.3701 5.69112 9.33985 4.77637L9.33984 4.77636C8.65703 4.17006 8.00092 3.76136 7.44228 3.55283C6.87457 3.34091 6.45512 3.35172 6.19875 3.50015L6.19873 3.50016C5.95549 3.64096 5.74894 3.97668 5.65226 4.53785C5.55712 5.09014 5.57794 5.81431 5.74172 6.65138L7.63922 11.4043ZM7.63922 11.4043C6.66945 9.72937 6.01389 8.04117 5.74173 6.65141L7.63922 11.4043Z" stroke="url(#paint4_linear_0_6731)" stroke-width="0.5"/>
</g>
<defs>
<linearGradient id="paint0_linear_0_6731" x1="14.1026" y1="2.42538e-08" x2="3.07773" y2="17.4489" gradientUnits="userSpaceOnUse">
<stop stop-color="#131416"/>
<stop offset="1" stop-color="#1A1B1F"/>
</linearGradient>
<linearGradient id="paint1_linear_0_6731" x1="11.4576" y1="8.56555" x2="8.26947" y2="10.2832" gradientUnits="userSpaceOnUse">
<stop stop-color="#B0FF4D"/>
<stop offset="1" stop-color="#FFE926"/>
</linearGradient>
<linearGradient id="paint2_linear_0_6731" x1="17.8125" y1="7.05957" x2="10.4572" y2="17.4557" gradientUnits="userSpaceOnUse">
<stop stop-color="#B0FF4D"/>
<stop offset="1" stop-color="#FFE926"/>
</linearGradient>
<linearGradient id="paint3_linear_0_6731" x1="14.647" y1="3.125" x2="3.04294" y2="7.33548" gradientUnits="userSpaceOnUse">
<stop stop-color="#B0FF4D"/>
<stop offset="1" stop-color="#FFE926"/>
</linearGradient>
<linearGradient id="paint4_linear_0_6731" x1="14.6762" y1="3.14087" x2="3.0501" y2="7.37365" gradientUnits="userSpaceOnUse">
<stop stop-color="#B0FF4D"/>
<stop offset="1" stop-color="#FFE926"/>
</linearGradient>
<clipPath id="clip0_0_6731">
<rect width="20" height="20" fill="white"/>
</clipPath>
</defs>
</svg>
