<svg width="62" height="62" viewBox="0 0 62 62" fill="none" xmlns="http://www.w3.org/2000/svg">
<g filter="url(#filter0_d_0_6610)">
<path d="M45.0749 27C45.0779 27.4101 44.9531 27.811 44.7179 28.147C44.4827 28.483 44.1488 28.7374 43.7624 28.875L35.7749 31.775L32.8749 39.7625C32.7328 40.1453 32.477 40.4754 32.1418 40.7085C31.8066 40.9416 31.4081 41.0665 30.9999 41.0665C30.5916 41.0665 30.1931 40.9416 29.8579 40.7085C29.5228 40.4754 29.267 40.1453 29.1249 39.7625L26.2249 31.775L18.2374 28.875C17.8546 28.7329 17.5245 28.4771 17.2914 28.1419C17.0583 27.8068 16.9333 27.4083 16.9333 27C16.9333 26.5917 17.0583 26.1932 17.2914 25.8581C17.5245 25.5229 17.8546 25.2671 18.2374 25.125L26.2249 22.225L29.1249 14.2375C29.267 13.8547 29.5228 13.5246 29.8579 13.2915C30.1931 13.0584 30.5916 12.9335 30.9999 12.9335C31.4081 12.9335 31.8066 13.0584 32.1418 13.2915C32.477 13.5246 32.7328 13.8547 32.8749 14.2375L35.7749 22.225L43.7624 25.125C44.1488 25.2626 44.4827 25.517 44.7179 25.853C44.9531 26.189 45.0779 26.5899 45.0749 27Z" fill="#0EA5E9"/>
</g>
<defs>
<filter id="filter0_d_0_6610" x="0.93335" y="0.933472" width="60.1416" height="60.1331" filterUnits="userSpaceOnUse" color-interpolation-filters="sRGB">
<feFlood flood-opacity="0" result="BackgroundImageFix"/>
<feColorMatrix in="SourceAlpha" type="matrix" values="0 0 0 0 0 0 0 0 0 0 0 0 0 0 0 0 0 0 127 0" result="hardAlpha"/>
<feOffset dy="4"/>
<feGaussianBlur stdDeviation="8"/>
<feComposite in2="hardAlpha" operator="out"/>
<feColorMatrix type="matrix" values="0 0 0 0 0.254063 0 0 0 0 0.798887 0 0 0 0 0.970937 0 0 0 0.48 0"/>
<feBlend mode="normal" in2="BackgroundImageFix" result="effect1_dropShadow_0_6610"/>
<feBlend mode="normal" in="SourceGraphic" in2="effect1_dropShadow_0_6610" result="shape"/>
</filter>
</defs>
</svg>
