<svg width="20" height="20" viewBox="0 0 20 20" fill="none" xmlns="http://www.w3.org/2000/svg">
<rect y="2.85828" width="20" height="14.2857" rx="2" fill="white"/>
<mask id="mask0_89_4644" style="mask-type:luminance" maskUnits="userSpaceOnUse" x="0" y="2" width="20" height="16">
<rect y="2.85828" width="20" height="14.2857" rx="2" fill="white"/>
</mask>
<g mask="url(#mask0_89_4644)">
<path fill-rule="evenodd" clip-rule="evenodd" d="M20 2.85828H0V3.81066H20V2.85828ZM20 4.76304H0V5.71542H20V4.76304ZM0 6.6678H20V7.62018H0V6.6678ZM20 8.57256H0V9.52494H20V8.57256ZM0 10.4773H20V11.4297H0V10.4773ZM20 12.3821H0V13.3345H20V12.3821ZM0 14.2868H20V15.2392H0V14.2868ZM20 16.1916H0V17.144H20V16.1916Z" fill="#D02F44"/>
<rect y="2.85828" width="8.57143" height="6.66667" fill="#46467F"/>
<g filter="url(#filter0_d_89_4644)">
<path fill-rule="evenodd" clip-rule="evenodd" d="M1.90477 4.28686C1.90477 4.54985 1.69158 4.76305 1.42858 4.76305C1.16559 4.76305 0.952393 4.54985 0.952393 4.28686C0.952393 4.02387 1.16559 3.81067 1.42858 3.81067C1.69158 3.81067 1.90477 4.02387 1.90477 4.28686ZM3.80954 4.28686C3.80954 4.54985 3.59634 4.76305 3.33335 4.76305C3.07035 4.76305 2.85715 4.54985 2.85715 4.28686C2.85715 4.02387 3.07035 3.81067 3.33335 3.81067C3.59634 3.81067 3.80954 4.02387 3.80954 4.28686ZM5.23811 4.76305C5.5011 4.76305 5.7143 4.54985 5.7143 4.28686C5.7143 4.02387 5.5011 3.81067 5.23811 3.81067C4.97511 3.81067 4.76192 4.02387 4.76192 4.28686C4.76192 4.54985 4.97511 4.76305 5.23811 4.76305ZM7.61906 4.28686C7.61906 4.54985 7.40586 4.76305 7.14287 4.76305C6.87988 4.76305 6.66668 4.54985 6.66668 4.28686C6.66668 4.02387 6.87988 3.81067 7.14287 3.81067C7.40586 3.81067 7.61906 4.02387 7.61906 4.28686ZM2.38096 5.71543C2.64396 5.71543 2.85715 5.50223 2.85715 5.23924C2.85715 4.97625 2.64396 4.76305 2.38096 4.76305C2.11797 4.76305 1.90477 4.97625 1.90477 5.23924C1.90477 5.50223 2.11797 5.71543 2.38096 5.71543ZM4.76192 5.23924C4.76192 5.50223 4.54872 5.71543 4.28573 5.71543C4.02273 5.71543 3.80954 5.50223 3.80954 5.23924C3.80954 4.97625 4.02273 4.76305 4.28573 4.76305C4.54872 4.76305 4.76192 4.97625 4.76192 5.23924ZM6.19049 5.71543C6.45348 5.71543 6.66668 5.50223 6.66668 5.23924C6.66668 4.97625 6.45348 4.76305 6.19049 4.76305C5.9275 4.76305 5.7143 4.97625 5.7143 5.23924C5.7143 5.50223 5.9275 5.71543 6.19049 5.71543ZM7.61906 6.19162C7.61906 6.45461 7.40586 6.66781 7.14287 6.66781C6.87988 6.66781 6.66668 6.45461 6.66668 6.19162C6.66668 5.92863 6.87988 5.71543 7.14287 5.71543C7.40586 5.71543 7.61906 5.92863 7.61906 6.19162ZM5.23811 6.66781C5.5011 6.66781 5.7143 6.45461 5.7143 6.19162C5.7143 5.92863 5.5011 5.71543 5.23811 5.71543C4.97511 5.71543 4.76192 5.92863 4.76192 6.19162C4.76192 6.45461 4.97511 6.66781 5.23811 6.66781ZM3.80954 6.19162C3.80954 6.45461 3.59634 6.66781 3.33335 6.66781C3.07035 6.66781 2.85715 6.45461 2.85715 6.19162C2.85715 5.92863 3.07035 5.71543 3.33335 5.71543C3.59634 5.71543 3.80954 5.92863 3.80954 6.19162ZM1.42858 6.66781C1.69158 6.66781 1.90477 6.45461 1.90477 6.19162C1.90477 5.92863 1.69158 5.71543 1.42858 5.71543C1.16559 5.71543 0.952393 5.92863 0.952393 6.19162C0.952393 6.45461 1.16559 6.66781 1.42858 6.66781ZM2.85715 7.144C2.85715 7.407 2.64396 7.62019 2.38096 7.62019C2.11797 7.62019 1.90477 7.407 1.90477 7.144C1.90477 6.88101 2.11797 6.66781 2.38096 6.66781C2.64396 6.66781 2.85715 6.88101 2.85715 7.144ZM4.28573 7.62019C4.54872 7.62019 4.76192 7.407 4.76192 7.144C4.76192 6.88101 4.54872 6.66781 4.28573 6.66781C4.02273 6.66781 3.80954 6.88101 3.80954 7.144C3.80954 7.407 4.02273 7.62019 4.28573 7.62019ZM6.66668 7.144C6.66668 7.407 6.45348 7.62019 6.19049 7.62019C5.9275 7.62019 5.7143 7.407 5.7143 7.144C5.7143 6.88101 5.9275 6.66781 6.19049 6.66781C6.45348 6.66781 6.66668 6.88101 6.66668 7.144ZM7.14287 8.57257C7.40586 8.57257 7.61906 8.35938 7.61906 8.09638C7.61906 7.83339 7.40586 7.62019 7.14287 7.62019C6.87988 7.62019 6.66668 7.83339 6.66668 8.09638C6.66668 8.35938 6.87988 8.57257 7.14287 8.57257ZM5.7143 8.09638C5.7143 8.35938 5.5011 8.57257 5.23811 8.57257C4.97511 8.57257 4.76192 8.35938 4.76192 8.09638C4.76192 7.83339 4.97511 7.62019 5.23811 7.62019C5.5011 7.62019 5.7143 7.83339 5.7143 8.09638ZM3.33335 8.57257C3.59634 8.57257 3.80954 8.35938 3.80954 8.09638C3.80954 7.83339 3.59634 7.62019 3.33335 7.62019C3.07035 7.62019 2.85715 7.83339 2.85715 8.09638C2.85715 8.35938 3.07035 8.57257 3.33335 8.57257ZM1.90477 8.09638C1.90477 8.35938 1.69158 8.57257 1.42858 8.57257C1.16559 8.57257 0.952393 8.35938 0.952393 8.09638C0.952393 7.83339 1.16559 7.62019 1.42858 7.62019C1.69158 7.62019 1.90477 7.83339 1.90477 8.09638Z" fill="url(#paint0_linear_89_4644)"/>
</g>
</g>
<defs>
<filter id="filter0_d_89_4644" x="0.952393" y="3.81067" width="6.66666" height="5.76196" filterUnits="userSpaceOnUse" color-interpolation-filters="sRGB">
<feFlood flood-opacity="0" result="BackgroundImageFix"/>
<feColorMatrix in="SourceAlpha" type="matrix" values="0 0 0 0 0 0 0 0 0 0 0 0 0 0 0 0 0 0 127 0" result="hardAlpha"/>
<feOffset dy="1"/>
<feColorMatrix type="matrix" values="0 0 0 0 0 0 0 0 0 0 0 0 0 0 0 0 0 0 0.06 0"/>
<feBlend mode="normal" in2="BackgroundImageFix" result="effect1_dropShadow_89_4644"/>
<feBlend mode="normal" in="SourceGraphic" in2="effect1_dropShadow_89_4644" result="shape"/>
</filter>
<linearGradient id="paint0_linear_89_4644" x1="0.952393" y1="3.81067" x2="0.952393" y2="8.57257" gradientUnits="userSpaceOnUse">
<stop stop-color="white"/>
<stop offset="1" stop-color="#F0F0F0"/>
</linearGradient>
</defs>
</svg>
