<svg width="20" height="20" viewBox="0 0 20 20" fill="none" xmlns="http://www.w3.org/2000/svg">
<path d="M19.582 5.51985C19.352 4.6594 18.6744 3.98165 17.8139 3.75168C16.2541 3.33374 9.99995 3.33374 9.99995 3.33374C9.99995 3.33374 3.74583 3.33374 2.1861 3.75168C1.32565 3.98165 0.647907 4.6594 0.41794 5.51985C0 7.07958 0 10.3337 0 10.3337C0 10.3337 0 13.588 0.41794 15.1476C0.647907 16.008 1.32565 16.6858 2.1861 16.9157C3.74583 17.3338 9.99995 17.3338 9.99995 17.3338C9.99995 17.3338 16.2541 17.3338 17.8139 16.9157C18.6744 16.6858 19.352 16.008 19.582 15.1476C20 13.588 20 10.3337 20 10.3337C20 10.3337 20 7.07958 19.582 5.51985Z" fill="#ED1D24"/>
<path d="M8 13.3338L13.196 10.3338L8 7.33374V13.3338Z" fill="white"/>
</svg>
